<?xml version="1.0" encoding="utf-8"?>
<!-- Generator: Adobe Illustrator 21.0.0, SVG Export Plug-In . SVG Version: 6.00 Build 0)  -->
<svg version="1.1" id="Layer_1" xmlns="http://www.w3.org/2000/svg" xmlns:xlink="http://www.w3.org/1999/xlink" x="0px" y="0px"
	 viewBox="0 0 100 40" style="enable-background:new 0 0 100 40;" xml:space="preserve">
<style type="text/css">
	.st0{fill:#808080;}
</style>
<g>
	<path class="st0" d="M53.8,29.7c0.1,0.1,0.2,0.4,0.1,0.7c-0.1,0.2-0.2,0.3-0.4,0.5s-0.7,0.4-1.4,0c-0.3-0.2-0.3-0.3-0.8-0.2
		c-0.3,0.1-0.5-0.3-0.3-0.6c0.1-0.3,0.6-0.5,1.2-0.2c0.3,0.2,0.7,0.5,1.1,0.2c0.2-0.1,0.2-0.2,0.5-0.5
		C53.7,29.6,53.7,29.6,53.8,29.7C53.7,29.6,53.8,29.6,53.8,29.7L53.8,29.7z"/>
	<path class="st0" d="M50,5c-9.3,0-16.9,7.6-16.9,16.9c0,1.9,0.3,3.7,0.9,5.4h1.2c1,0,2-0.3,2.8-0.7c0.2-0.1,0.5-0.2,0.7-0.2
		c0.5,0,1,0.2,1.2,0.7c0.2,0.4,0.5,0.7,0.7,0.8c0.2,0.2,0.6,0.3,1,0.3c0.2,0,0.5-0.1,0.6-0.3c0.1-0.3,0-0.5-0.3-0.6
		c-0.5-0.2-0.6-0.5-0.8-0.9c-0.2-0.5-0.8-0.7-0.8-1.5c-0.1-0.8,0.6-1.8,1.8-1.5c0.9,0.2,1.5,1.3,1.7,1.7c0.1,0.2,0.5,0.4,0.8,0.1
		s0.6-0.3,0.8,0.1c0.2,0.3,1.8,2.3,3.4,2.4c1.6,0.1,2.5-0.3,3.3-0.3c0.5,0.1,0.8,0.3,1.1,0.3c0.6,0.1,0.9-0.3,1.5-0.3
		c0.5,0.1,1,0.3,1.5,0.3s1.6-0.6,1.6-0.3c0,0.5-0.4,1.2-0.5,1.6c-0.1,0.2,0,0.8-0.2,1.4c-0.2,0.5-0.6,1.1-0.7,1.3
		c-0.5,0.6-0.7,0.8-1.1,1.5c-0.4,0.7-1,1.4-1.2,1.6c-0.2,0.3,1.1,0,1.6-0.5c0.5-0.4,1.2-1.6,2.3-1.8c0.8-0.2,1-0.5,0.8-0.7
		c0-0.1,0-0.1,0-0.1c0-0.1,0.1-0.2,0.2-0.2c1-0.3,2-0.5,3.2-0.5c0.7,0,1.4,0.1,2,0.2c1.7-2.7,2.7-5.8,2.7-9.3C66.9,12.6,59.3,5,50,5
		z M63.8,21.7c-0.8,4.4-8.1,5.9-15.2,3.8c-6.7-2-12.7-6.1-12-8.5c0.4-1.4,2.6-2,5.5-1.6c-0.5,0.9-0.4,2,1.5,3.2
		C46,20,50,21.1,51.1,21c0.4-0.1,0.7-0.3,0.4-0.5c-0.4-0.2-0.7-0.7-0.9-1.6c-0.1-0.5-0.2-1.1-2.8-1.6c-5.5-1-5.3-2.5-5.1-3.5
		c0,0,0.5-2.2,0.7-2.9c0.2-0.8,0.7-2.5,4.2-1.8c2,0.5,3.1-0.1,3.7-0.3c1.5-0.4,3.2-0.1,4.1,0.8c1,1,2.3,4.1,2.9,6.3
		c0.3,1.1,0.2,1.7,0.1,2.1c-0.1,0.3-0.2,0.5-0.6,1.1c-0.1,0.1,0,0.2,0.2,0.2c1.1-0.5,1.3-1.2,1.5-1.8C62.5,18.1,64.1,19.7,63.8,21.7
		z"/>
	<path class="st0" d="M48.8,13.2c-2,0.2-2.2,0.3-2.5,0.7c-0.5,0.6-1.2-0.7-1.2-0.7c-0.4-0.1-0.9-0.7-0.6-1.4
		c0.3-0.6,0.7-0.5,0.9-0.2c0.2,0.2,0.6,0.6,1.1,0.6s1.1-0.1,1.9-0.1c0.8,0,1.4,0.3,1.4,0.6C49.8,12.9,49.7,13.1,48.8,13.2L48.8,13.2
		z"/>
	<path class="st0" d="M50.8,9.9L50.8,9.9C50.7,9.9,50.7,9.9,50.8,9.9c-0.1-0.1-0.1-0.1,0-0.1c0.4-0.2,1-0.3,1.6-0.5
		c0.2,0,0.4-0.1,0.6-0.1c0.1,0,0.1,0,0.1,0c1.1,0,1.9,0.5,1.9,1s-0.9,0.9-2,0.8c-0.3,0-0.7-0.1-1-0.2c-0.1,0-0.1-0.1-0.1-0.1
		c0-0.1,0-0.1,0.1-0.1c0.7-0.2,1.1-0.4,1.1-0.7c-0.1-0.3-0.9-0.5-2-0.4C51,9.9,50.9,9.9,50.8,9.9L50.8,9.9z"/>
</g>
</svg>
