<svg id="Layer_1" data-name="Layer 1" xmlns="http://www.w3.org/2000/svg" width="435.09" height="110.57" viewBox="0 0 435.09 110.57"><defs><style>.cls-1{fill:#fff;}.cls-2{fill:#54c0e8;}</style></defs><title>himss20-logo-reverse</title><g id="HFCtype"><path class="cls-1" d="M236.32,51.46c-1.46-.49-3-1-4.5-1.41a27.1,27.1,0,0,1-4.33-1.65A11.42,11.42,0,0,1,224.17,46a5.78,5.78,0,0,1-1.46-4,6.62,6.62,0,0,1,2.75-5.49,10.58,10.58,0,0,1,6.57-2,16.91,16.91,0,0,1,6.27,1.27,23,23,0,0,1,5.12,2.92l6.08-12.12a47.64,47.64,0,0,0-9.62-3.67c-7.63-2-14.88-1.89-20.41.21a19.73,19.73,0,0,0-11.86,11.55A24.8,24.8,0,0,0,206,43.86a19.58,19.58,0,0,0,1.52,8.29,15.9,15.9,0,0,0,4,5.35A20.85,20.85,0,0,0,217.24,61c2.28.92,4.61,1.76,6.91,2.49,2,.68,3.7,1.34,5.2,1.94a15.91,15.91,0,0,1,3.71,2,7.2,7.2,0,0,1,2.24,2.65,7.79,7.79,0,0,1,.69,3.36,7.69,7.69,0,0,1-2.6,5.71c-1.7,1.61-4.24,2.43-7.56,2.43a20.78,20.78,0,0,1-8.48-1.92,32,32,0,0,1-7.29-4.7l-6.61,12.68a40.88,40.88,0,0,0,23.23,7.25,34.38,34.38,0,0,0,11.18-1.69h0a23.33,23.33,0,0,0,8.21-4.71,19.69,19.69,0,0,0,5-7.22,25.43,25.43,0,0,0,1.72-9.53c0-5.14-1.3-9.35-3.88-12.51S242.07,53.41,236.32,51.46Z"/><path class="cls-1" d="M309.89,59.23c-2.62-3.21-6.87-5.82-12.62-7.77-1.46-.49-3-1-4.5-1.41a27.1,27.1,0,0,1-4.33-1.65A11.42,11.42,0,0,1,285.12,46a5.78,5.78,0,0,1-1.46-4,6.6,6.6,0,0,1,2.75-5.49,10.58,10.58,0,0,1,6.57-2,17,17,0,0,1,6.27,1.27,23.22,23.22,0,0,1,5.12,2.92l6.08-12.12a47.64,47.64,0,0,0-9.62-3.67c-7.63-2-14.88-1.89-20.41.21a19.73,19.73,0,0,0-11.86,11.55,24.8,24.8,0,0,0-1.64,9.21,19.58,19.58,0,0,0,1.52,8.29,15.9,15.9,0,0,0,4,5.35A20.7,20.7,0,0,0,278.19,61c2.28.92,4.61,1.76,6.91,2.49,2,.68,3.7,1.34,5.2,1.94a16,16,0,0,1,3.7,2,7.14,7.14,0,0,1,2.25,2.65,7.79,7.79,0,0,1,.69,3.36,7.69,7.69,0,0,1-2.6,5.71c-1.7,1.61-4.24,2.43-7.56,2.43a20.74,20.74,0,0,1-8.48-1.92A32,32,0,0,1,271,75l-6.62,12.68a40.94,40.94,0,0,0,23.24,7.25,34.38,34.38,0,0,0,11.18-1.69h0A23.33,23.33,0,0,0,307,88.49a19.69,19.69,0,0,0,5-7.22,25.43,25.43,0,0,0,1.72-9.53C313.77,66.6,312.47,62.39,309.89,59.23Z"/><polygon class="cls-1" points="122.97 22.86 122.97 93.58 138.22 93.58 138.22 62.37 156.5 82.29 174.31 62.47 174.59 93.58 189.6 93.58 189.6 22.86 156.52 60.4 122.97 22.86"/><polygon class="cls-1" points="51.29 50.63 15.26 50.63 15.26 23.19 0.01 23.19 0.01 50.63 0 50.63 0 66.14 0.01 66.14 0.01 93.58 15.26 93.58 15.26 66.14 51.29 66.14 51.29 93.58 66.63 93.58 66.63 23.19 51.29 23.19 51.29 50.63"/><rect class="cls-1" x="87.14" y="23.19" width="15.34" height="70.39"/></g><path class="cls-2" d="M379.8,0a55.29,55.29,0,1,0,55.29,55.28A55.28,55.28,0,0,0,379.8,0Zm-4.23,76.22H347.76L346,71.63l.35-.34A137.08,137.08,0,0,0,358.31,58.1c3.93-5.14,5.84-8.9,5.84-11.49,0-3.31-2.56-3.81-4.09-3.81-2.07,0-4.88.74-8.57,2.26l-.68.27-3.4-7.4.61-.35a28.43,28.43,0,0,1,13.31-3.67c7.85,0,12.92,4.34,12.92,11.05,0,4-1.66,8.31-5.09,13.26a81,81,0,0,1-7.8,9.49h14.21Zm23,.44c-10.51,0-16.78-8-16.78-21.29S388,34.08,398.54,34.08s16.56,8,16.56,21.29S408.91,76.66,398.54,76.66Z"/><path class="cls-2" d="M398.49,42.58c-4.61,0-6.84,4.18-6.84,12.79s2.23,12.78,6.84,12.78c1.65,0,6.67,0,6.67-12.78S400.14,42.58,398.49,42.58Z"/></svg>